<?xml version="1.0" encoding="UTF-8"?><svg id="Layer_2" xmlns="http://www.w3.org/2000/svg" width="578.37" height="214.99" viewBox="0 0 578.37 214.99"><g id="Capa_1"><path d="m0,0c60.65,127.14,190.37,214.99,340.62,214.99,90.07,0,172.76-31.57,237.62-84.25V0H0Z" fill="#a1d33f" stroke-width="0"/><path d="m197.15,102.32c-.68,1.22-1.52,2.32-2.53,3.3-1,.98-2.11,1.82-3.32,2.53-1.22.7-2.53,1.25-3.94,1.63-1.41.39-2.88.58-4.39.58-2.23,0-4.33-.41-6.3-1.25-1.97-.83-3.7-1.95-5.16-3.38-1.47-1.42-2.64-3.08-3.5-4.99-.86-1.91-1.28-3.94-1.28-6.09s.43-4.18,1.28-6.09c.86-1.91,2.03-3.57,3.5-4.99,1.47-1.42,3.19-2.55,5.16-3.37,1.97-.83,4.07-1.24,6.3-1.24,1.52,0,2.98.2,4.39.58,1.42.39,2.73.93,3.94,1.64,1.21.71,2.32,1.55,3.32,2.53,1.01.98,1.85,2.06,2.53,3.25l-5.61,2.2c-.46-.66-.99-1.28-1.61-1.86-.62-.58-1.29-1.09-2.04-1.53-.74-.44-1.53-.79-2.36-1.03-.83-.25-1.68-.38-2.57-.38-1.43,0-2.76.28-4.01.85-1.24.57-2.33,1.32-3.24,2.26-.91.94-1.64,2.03-2.18,3.29-.55,1.26-.82,2.56-.82,3.92s.27,2.69.82,3.94c.54,1.24,1.27,2.33,2.18,3.27.91.94,2,1.69,3.24,2.25,1.24.57,2.58.85,4.01.85.89,0,1.74-.13,2.57-.38.83-.24,1.62-.59,2.36-1.03.74-.44,1.42-.96,2.04-1.56.61-.59,1.15-1.22,1.61-1.88l5.61,2.19Z" fill="#2b673c" stroke-width="0"/><path d="m215.56,110.36c-2.23,0-4.33-.41-6.3-1.24-1.97-.83-3.7-1.95-5.17-3.38-1.47-1.42-2.64-3.08-3.49-4.99-.86-1.91-1.29-3.95-1.29-6.13s.43-4.19,1.29-6.11c.85-1.92,2.02-3.59,3.49-5.02,1.47-1.42,3.19-2.54,5.17-3.37,1.97-.82,4.07-1.24,6.3-1.24s4.37.42,6.34,1.24c1.97.83,3.69,1.95,5.17,3.37,1.47,1.43,2.63,3.1,3.49,5.02.86,1.92,1.28,3.96,1.28,6.11s-.43,4.22-1.28,6.13c-.86,1.91-2.02,3.57-3.49,4.99-1.48,1.43-3.2,2.55-5.17,3.38-1.97.83-4.08,1.24-6.34,1.24m.02-26.06c-1.43,0-2.76.28-4,.85-1.24.56-2.33,1.32-3.25,2.26-.93.94-1.66,2.04-2.2,3.29-.54,1.25-.81,2.56-.81,3.92s.27,2.69.81,3.93c.55,1.24,1.28,2.34,2.2,3.29.93.95,2.01,1.71,3.25,2.27,1.24.57,2.57.85,4,.85s2.75-.28,4-.85c1.24-.56,2.32-1.32,3.25-2.27.93-.96,1.66-2.05,2.2-3.29.54-1.24.81-2.55.81-3.93s-.27-2.66-.81-3.92c-.54-1.26-1.28-2.35-2.2-3.29-.93-.94-2.01-1.69-3.25-2.26-1.24-.57-2.57-.85-4-.85" fill="#2b673c" stroke-width="0"/><path d="m250.95,110.36c-2.23,0-4.33-.41-6.3-1.24-1.97-.83-3.69-1.95-5.16-3.38-1.47-1.42-2.64-3.08-3.49-4.99-.86-1.91-1.29-3.95-1.29-6.13s.43-4.19,1.29-6.11c.86-1.92,2.02-3.59,3.49-5.02,1.47-1.42,3.19-2.54,5.16-3.37,1.97-.82,4.07-1.24,6.3-1.24s4.37.42,6.34,1.24c1.97.83,3.69,1.95,5.16,3.37,1.47,1.43,2.64,3.1,3.49,5.02.86,1.92,1.28,3.96,1.28,6.11s-.42,4.22-1.28,6.13c-.86,1.91-2.02,3.57-3.49,4.99-1.47,1.43-3.19,2.55-5.16,3.38-1.97.83-4.09,1.24-6.34,1.24m.02-26.06c-1.43,0-2.76.28-4,.85-1.24.56-2.32,1.32-3.25,2.26-.93.94-1.66,2.04-2.2,3.29-.54,1.25-.81,2.56-.81,3.92s.27,2.69.81,3.93c.54,1.24,1.27,2.34,2.2,3.29.93.95,2.01,1.71,3.25,2.27,1.24.57,2.57.85,4,.85s2.76-.28,4-.85c1.24-.56,2.32-1.32,3.25-2.27.93-.96,1.66-2.05,2.2-3.29.54-1.24.81-2.55.81-3.93s-.27-2.66-.81-3.92c-.54-1.26-1.28-2.35-2.2-3.29-.93-.94-2.01-1.69-3.25-2.26-1.24-.57-2.57-.85-4-.85" fill="#2b673c" stroke-width="0"/><path d="m284.4,79.46c1.54,0,2.99.28,4.35.85,1.36.57,2.54,1.33,3.54,2.3,1,.97,1.8,2.11,2.38,3.42.59,1.31.88,2.71.88,4.2s-.26,2.88-.77,4.15c-.51,1.27-1.28,2.38-2.27,3.33-1.01.95-2.26,1.7-3.8,2.23-1.53.54-3.29.81-5.29.81h-6.98v9.03h-6v-30.32h13.97Zm0,16.07c.88,0,1.66-.14,2.32-.44.66-.29,1.19-.68,1.61-1.18.41-.5.72-1.06.92-1.7.2-.64.3-1.3.3-2s-.13-1.37-.38-2.05c-.26-.68-.63-1.27-1.11-1.81-.49-.52-1.09-.95-1.8-1.28-.71-.33-1.54-.5-2.49-.5h-7.33v10.94h7.97Z" fill="#2b673c" stroke-width="0"/><path d="m304.61,109.78h-6v-30.32h14.26c1.6,0,3.07.26,4.4.77,1.33.51,2.47,1.23,3.42,2.16.94.92,1.67,2.03,2.2,3.31.53,1.28.8,2.69.8,4.21,0,2.29-.59,4.29-1.78,6-1.19,1.72-2.77,2.94-4.74,3.69,2.64,3.37,5.24,6.77,7.81,10.19h-7.16c-1.25-1.57-2.48-3.16-3.67-4.76-1.2-1.6-2.4-3.23-3.59-4.89h-5.94v9.65Zm0-14.79h8.25c.54,0,1.1-.1,1.68-.31.59-.21,1.11-.52,1.56-.95.46-.43.83-.96,1.13-1.6.3-.63.45-1.38.45-2.23,0-.44-.05-.97-.17-1.57-.12-.61-.35-1.19-.68-1.74-.34-.55-.83-1.02-1.45-1.41-.63-.38-1.47-.58-2.52-.58h-8.25v10.4Z" fill="#2b673c" stroke-width="0"/><path d="m343.26,110.36c-2.23,0-4.33-.41-6.3-1.24-1.97-.83-3.7-1.95-5.17-3.38-1.47-1.42-2.63-3.08-3.49-4.99-.86-1.91-1.28-3.95-1.28-6.13s.43-4.19,1.28-6.11c.86-1.92,2.02-3.59,3.49-5.02,1.47-1.42,3.2-2.54,5.17-3.37,1.97-.82,4.07-1.24,6.3-1.24s4.37.42,6.34,1.24c1.98.83,3.7,1.95,5.17,3.37,1.47,1.43,2.64,3.1,3.5,5.02.86,1.92,1.28,3.96,1.28,6.11s-.42,4.22-1.28,6.13c-.86,1.91-2.02,3.57-3.5,4.99-1.47,1.43-3.19,2.55-5.17,3.38-1.97.83-4.08,1.24-6.34,1.24m.02-26.06c-1.43,0-2.76.28-4,.85-1.24.56-2.32,1.32-3.25,2.26-.93.94-1.66,2.04-2.2,3.29-.54,1.25-.81,2.56-.81,3.92s.27,2.69.81,3.93c.54,1.24,1.28,2.34,2.2,3.29.93.95,2.01,1.71,3.25,2.27,1.24.57,2.58.85,4,.85s2.76-.28,4-.85c1.24-.56,2.32-1.32,3.25-2.27.93-.96,1.66-2.05,2.2-3.29.54-1.24.82-2.55.82-3.93s-.27-2.66-.82-3.92c-.54-1.26-1.27-2.35-2.2-3.29-.93-.94-2.01-1.69-3.25-2.26-1.24-.57-2.58-.85-4-.85" fill="#2b673c" stroke-width="0"/><path d="m394.46,93.21c-.03.58-.05,1.12-.05,1.61-.03.44-.04.88-.04,1.3s-.01.75-.04.97c-.17,1.91-.71,3.67-1.61,5.3-.9,1.63-2.06,3.03-3.47,4.2-1.42,1.17-3.04,2.09-4.89,2.75-1.84.66-3.78,1-5.81,1-2.23,0-4.33-.41-6.3-1.25-1.97-.83-3.7-1.95-5.18-3.38-1.48-1.42-2.65-3.08-3.51-4.99-.86-1.91-1.3-3.94-1.3-6.09s.43-4.19,1.3-6.11c.86-1.92,2.03-3.59,3.51-5.01,1.48-1.43,3.21-2.55,5.18-3.38,1.97-.83,4.07-1.24,6.3-1.24,2.83,0,5.42.64,7.78,1.91,2.35,1.27,4.26,2.97,5.72,5.09l-5.15,3.02c-.92-1.29-2.11-2.38-3.58-3.27-1.47-.88-3.07-1.33-4.78-1.33-1.43,0-2.77.28-4.01.85-1.24.57-2.33,1.32-3.26,2.26-.93.94-1.66,2.03-2.21,3.29-.54,1.26-.82,2.57-.82,3.92s.27,2.69.82,3.94c.54,1.24,1.28,2.33,2.21,3.27.93.94,2.02,1.69,3.26,2.26,1.24.57,2.58.85,4.01.85,1.09,0,2.13-.16,3.13-.48,1-.32,1.92-.77,2.75-1.35.83-.58,1.55-1.27,2.16-2.07.62-.8,1.06-1.68,1.35-2.65h-11.58v-5.22h18.09Z" fill="#2b673c" stroke-width="0"/><path d="m404.6,109.78h-6v-30.32h14.25c1.6,0,3.07.26,4.4.77,1.33.51,2.47,1.23,3.41,2.16.95.92,1.68,2.03,2.21,3.31.53,1.28.8,2.69.8,4.21,0,2.29-.6,4.29-1.78,6-1.19,1.72-2.77,2.94-4.75,3.69,2.64,3.37,5.24,6.77,7.81,10.19h-7.16c-1.25-1.57-2.47-3.16-3.67-4.76-1.19-1.6-2.4-3.23-3.59-4.89h-5.94v9.65Zm0-14.79h8.25c.54,0,1.1-.1,1.69-.31.58-.21,1.11-.52,1.56-.95.46-.43.83-.96,1.13-1.6.3-.63.45-1.38.45-2.23,0-.44-.06-.97-.17-1.57-.11-.61-.34-1.19-.68-1.74-.34-.55-.82-1.02-1.45-1.41-.63-.38-1.47-.58-2.52-.58h-8.25v10.4Z" fill="#2b673c" stroke-width="0"/><polygon points="434.58 84.59 434.58 92.17 449.76 92.17 449.76 97.43 434.58 97.43 434.58 104.56 451.69 104.56 451.69 109.78 428.58 109.78 428.58 79.46 451.69 79.46 451.69 84.59 434.58 84.59" fill="#2b673c" stroke-width="0"/><path d="m455.74,105.8l3.26-4.64c1.57,1.05,3.19,1.96,4.86,2.72,1.67.76,3.42,1.14,5.25,1.14.97,0,1.83-.12,2.57-.35.74-.23,1.37-.54,1.89-.91.51-.37.9-.8,1.16-1.28.25-.48.38-.96.38-1.43,0-.61-.19-1.13-.58-1.55-.39-.43-.9-.78-1.54-1.06-.64-.27-1.4-.51-2.27-.7-.87-.19-1.78-.37-2.72-.54-.63-.11-1.36-.24-2.19-.39-.83-.16-1.69-.36-2.57-.62-.89-.27-1.76-.61-2.62-1.03-.86-.43-1.62-.97-2.31-1.62-.69-.65-1.24-1.42-1.65-2.32-.42-.9-.62-1.96-.62-3.17,0-1.76.37-3.24,1.12-4.41.74-1.17,1.69-2.1,2.85-2.77,1.16-.68,2.44-1.16,3.86-1.43,1.41-.27,2.78-.42,4.09-.42s2.49.09,3.52.25c1.03.16,1.98.41,2.87.73.88.32,1.75.72,2.59,1.2.85.49,1.75,1.06,2.72,1.72l-3.35,4.56c-1.48-1-2.91-1.76-4.29-2.28-1.37-.53-2.81-.79-4.33-.79-.51,0-1.1.06-1.76.18-.66.13-1.28.33-1.86.6-.59.28-1.07.62-1.46,1.06-.39.43-.58.95-.58,1.56s.23,1.12.69,1.53c.45.41,1.04.76,1.75,1.04.71.27,1.5.51,2.36.7.86.19,1.69.39,2.49.58.6.14,1.3.27,2.12.41.81.14,1.65.33,2.53.58.87.25,1.74.58,2.59.99.86.41,1.62.95,2.29,1.59.67.65,1.22,1.45,1.63,2.41.41.95.62,2.1.62,3.46,0,1.58-.29,2.94-.86,4.1-.57,1.16-1.39,2.12-2.44,2.88-1.06.76-2.31,1.33-3.77,1.72-1.46.39-3.07.58-4.85.58-1.63,0-3.06-.12-4.31-.35-1.24-.24-2.38-.55-3.41-.96-1.03-.4-2-.87-2.92-1.43-.92-.55-1.86-1.16-2.83-1.82" fill="#2b673c" stroke-width="0"/><path d="m499.91,110.36c-2.23,0-4.33-.41-6.3-1.24-1.97-.83-3.69-1.95-5.16-3.38-1.47-1.42-2.64-3.08-3.49-4.99-.86-1.91-1.28-3.95-1.28-6.13s.43-4.19,1.28-6.11c.86-1.92,2.02-3.59,3.49-5.02,1.47-1.42,3.19-2.54,5.16-3.37,1.97-.82,4.07-1.24,6.3-1.24s4.37.42,6.34,1.24c1.97.83,3.69,1.95,5.17,3.37,1.47,1.43,2.64,3.1,3.5,5.02.85,1.92,1.28,3.96,1.28,6.11s-.43,4.22-1.28,6.13c-.86,1.91-2.03,3.57-3.5,4.99-1.48,1.43-3.19,2.55-5.17,3.38-1.97.83-4.08,1.24-6.34,1.24m.02-26.06c-1.43,0-2.76.28-4,.85-1.24.56-2.33,1.32-3.25,2.26-.93.94-1.66,2.04-2.21,3.29-.54,1.25-.81,2.56-.81,3.92s.27,2.69.81,3.93c.55,1.24,1.28,2.34,2.21,3.29.93.95,2.01,1.71,3.25,2.27,1.24.57,2.57.85,4,.85s2.76-.28,4-.85c1.24-.56,2.32-1.32,3.25-2.27.93-.96,1.66-2.05,2.2-3.29.54-1.24.81-2.55.81-3.93s-.27-2.66-.81-3.92c-.54-1.26-1.28-2.35-2.2-3.29-.93-.94-2.01-1.69-3.25-2.26-1.24-.57-2.57-.85-4-.85" fill="#2b673c" stroke-width="0"/><path d="m578.23,109.47c-77.15,15.54-156.96,23.71-238.68,23.71-91.64,0-180.88-10.27-266.65-29.69" fill="none" stroke="#fff" stroke-miterlimit="10" stroke-width="1.33"/></g></svg>